<?xml version="1.0" standalone="no"?>
<!DOCTYPE svg PUBLIC "-//W3C//DTD SVG 20010904//EN"
 "http://www.w3.org/TR/2001/REC-SVG-20010904/DTD/svg10.dtd">
<svg version="1.0" xmlns="http://www.w3.org/2000/svg"
 width="512.000000pt" height="512.000000pt" viewBox="0 0 512.000000 512.000000"
 preserveAspectRatio="xMidYMid meet">
<metadata>
Created by potrace 1.14, written by Peter Selinger 2001-2017
</metadata>
<g transform="translate(0.000000,512.000000) scale(0.100000,-0.100000)"
fill="#000000" stroke="none">
<path d="M1236 5110 c-50 -16 -93 -53 -118 -102 -22 -42 -25 -62 -26 -153 0
-58 -3 -109 -6 -114 -4 -5 0 -11 6 -14 7 -2 -21 -14 -62 -27 -116 -35 -215
-87 -304 -160 -30 -25 -55 -48 -56 -53 0 -4 -12 -21 -27 -38 -16 -17 -26 -33
-25 -36 2 -3 -1 -9 -6 -12 -6 -3 -12 -13 -14 -21 -2 -8 -9 -21 -15 -28 -11
-11 -39 -90 -50 -142 -12 -55 -10 -172 5 -230 19 -73 70 -170 90 -170 7 0 11
-4 8 -8 -5 -9 101 -112 108 -104 3 2 8 -3 12 -12 3 -9 12 -16 19 -16 6 0 22
-9 35 -20 13 -11 73 -44 134 -74 110 -54 131 -64 276 -126 135 -58 164 -71
203 -91 21 -10 44 -19 52 -19 8 0 15 -4 15 -9 0 -5 10 -13 23 -17 19 -6 81
-44 126 -79 112 -85 146 -210 88 -323 -14 -29 -41 -66 -59 -83 -31 -29 -133
-86 -170 -95 -79 -19 -113 -24 -200 -28 -38 -1 -68 0 -68 3 0 4 -12 6 -27 5
-16 -1 -32 2 -38 5 -5 4 -17 7 -25 6 -21 -2 -154 45 -161 57 -3 5 -9 9 -13 8
-11 -2 -66 24 -66 32 0 5 -4 8 -10 8 -5 0 -57 31 -115 70 -59 38 -124 75 -145
81 -105 32 -200 -47 -200 -166 0 -55 28 -111 85 -170 44 -46 171 -131 220
-148 16 -5 35 -13 40 -17 16 -12 124 -47 185 -60 30 -7 68 -16 84 -21 15 -5
32 -6 37 -3 5 3 9 -49 10 -118 1 -145 3 -161 30 -205 22 -34 78 -83 101 -87 7
-1 18 -4 23 -8 20 -13 113 -2 151 17 44 23 67 46 89 93 23 46 24 60 26 194 1
98 3 118 15 114 8 -3 14 0 14 6 0 6 3 8 7 5 3 -4 12 -2 20 5 7 6 16 8 20 5 3
-3 18 0 34 9 16 8 29 12 29 10 0 -3 21 4 48 15 79 34 152 73 152 81 0 4 4 8
10 8 20 0 160 137 160 157 0 7 4 13 8 13 9 0 61 96 63 115 0 6 4 15 9 20 7 9
23 70 35 135 8 40 7 162 -1 205 -16 88 -75 189 -153 263 -49 47 -164 126 -176
123 -4 -2 -11 2 -14 7 -7 11 -191 103 -191 96 0 -2 -11 3 -24 11 -13 9 -28 15
-32 14 -9 -2 -75 23 -106 41 -10 6 -22 10 -27 10 -5 0 -26 8 -47 17 -22 9 -41
17 -44 18 -36 11 -203 88 -232 107 -14 10 -29 18 -32 18 -16 0 -116 95 -116
109 0 5 -7 17 -16 25 -20 21 -21 142 -1 162 4 4 7 14 7 21 0 36 125 147 170
151 3 1 12 3 20 6 28 9 75 19 100 22 45 5 174 5 200 -1 29 -6 93 -19 100 -20
21 -3 100 -49 176 -101 139 -95 168 -107 231 -101 104 11 153 64 149 162 -3
63 -34 128 -76 158 -11 7 -17 17 -13 20 3 4 -1 7 -10 7 -9 0 -17 5 -17 10 0 6
-7 10 -15 10 -8 0 -15 5 -15 10 0 6 -7 10 -15 10 -8 0 -15 4 -15 8 0 8 -68 45
-140 75 -44 18 -129 43 -197 58 l-52 10 -4 117 c-2 64 -6 128 -10 141 -9 34
-58 92 -94 113 -35 21 -126 31 -167 18z"/>
<path d="M2420 4826 c0 -3 7 -14 15 -23 8 -10 15 -22 14 -27 0 -5 3 -12 8 -15
8 -6 93 -139 93 -146 0 -2 23 -40 50 -84 28 -44 50 -85 50 -91 0 -5 4 -10 9
-10 5 0 14 -13 21 -30 7 -16 17 -30 22 -30 5 0 7 -4 4 -9 -3 -5 1 -14 9 -21 8
-7 15 -18 15 -25 0 -8 3 -15 8 -17 9 -4 41 -57 49 -80 3 -10 9 -18 14 -18 5 0
9 -4 9 -9 0 -8 79 -145 110 -191 6 -8 13 -23 16 -32 4 -10 10 -18 14 -18 5 0
12 -10 16 -22 3 -12 13 -28 20 -36 8 -7 14 -19 14 -26 0 -8 -131 -144 -291
-304 l-292 -290 782 0 c429 0 781 3 782 7 3 23 3 1543 0 1547 -2 2 -89 -82
-194 -186 -105 -105 -194 -190 -199 -190 -4 0 -8 -7 -8 -16 0 -8 -4 -12 -10
-9 -5 3 -11 0 -11 -7 -1 -7 -39 -48 -84 -91 l-82 -78 -69 43 c-38 23 -72 47
-76 53 -4 5 -8 7 -8 3 0 -5 -215 119 -330 192 -8 5 -42 25 -75 45 -33 19 -77
45 -97 58 -38 22 -211 126 -280 167 -21 12 -38 19 -38 16z"/>
<path d="M2568 3068 c-49 -24 -83 -70 -84 -117 0 -21 -4 -43 -8 -49 -4 -7 -3
-12 1 -12 5 0 15 -16 22 -36 11 -31 314 -510 331 -524 4 -3 10 -12 14 -20 12
-26 65 -108 178 -278 26 -40 48 -74 48 -77 0 -8 65 -100 73 -103 4 -2 7 -8 7
-13 0 -5 16 -33 35 -62 l35 -52 -237 -5 c-257 -5 -283 -11 -318 -64 -40 -61
-20 -158 39 -190 46 -24 226 -42 226 -23 0 5 6 5 12 1 18 -11 48 -12 48 -2 0
5 6 6 12 2 18 -11 48 -12 48 -2 0 5 6 6 12 2 18 -11 48 -12 48 -2 0 5 5 6 12
2 16 -10 128 -11 128 -1 0 5 6 5 12 1 18 -11 48 -12 48 -2 0 5 6 6 13 1 6 -4
26 -8 42 -8 l30 0 3 -147 c1 -82 -1 -148 -5 -149 -5 0 -152 -2 -328 -3 -249
-1 -326 -5 -345 -15 -23 -13 -69 -59 -71 -71 0 -3 -2 -14 -5 -25 -7 -36 8 -96
29 -117 51 -48 71 -51 410 -51 l317 0 0 -346 c0 -214 4 -361 11 -384 36 -131
223 -169 315 -65 45 51 48 71 48 443 l0 353 321 -1 c287 0 324 2 355 18 60 31
80 63 80 125 0 49 -27 92 -73 117 -28 15 -72 18 -352 19 -176 2 -323 3 -326 3
-3 1 -6 67 -5 149 l1 147 50 0 c28 0 55 4 62 8 6 4 14 3 17 -1 5 -9 53 -8 62
1 3 3 20 1 39 -3 21 -5 38 -3 44 3 7 7 11 8 11 1 0 -12 29 -12 48 0 6 4 12 3
12 -2 0 -10 30 -9 48 2 6 4 12 3 12 -2 0 -10 30 -9 48 2 6 4 12 3 12 -1 0 -5
26 -7 58 -6 31 2 64 3 72 4 49 1 103 25 131 56 26 30 30 42 28 82 -4 61 -16
83 -59 112 -34 23 -40 24 -277 27 l-243 3 15 30 c9 16 20 29 26 29 6 0 8 4 5
8 -3 5 4 18 14 30 11 12 20 24 20 27 0 4 13 25 28 48 94 139 112 166 112 176
0 6 5 11 10 11 6 0 10 4 10 9 0 4 22 41 49 82 127 193 162 249 161 255 -1 4 5
11 14 16 9 5 16 13 16 18 0 8 78 131 100 157 5 7 10 16 10 22 0 5 3 11 8 13 7
3 92 135 121 188 7 14 15 52 18 85 5 55 3 64 -22 93 -45 54 -93 71 -167 59
-49 -7 -106 -55 -157 -129 -28 -40 -54 -77 -58 -83 -5 -5 -37 -55 -73 -109
-36 -55 -70 -105 -76 -111 -6 -6 -14 -20 -18 -30 -3 -11 -17 -32 -31 -47 -14
-16 -23 -28 -21 -28 3 0 -21 -38 -54 -85 -33 -47 -56 -85 -52 -85 4 0 2 -4 -3
-8 -15 -10 -155 -220 -155 -231 0 -5 -4 -11 -8 -13 -5 -1 -44 -57 -87 -123
-43 -66 -82 -122 -87 -123 -4 -2 -6 -7 -4 -10 2 -4 -5 -16 -16 -27 -19 -19
-19 -19 -25 3 -3 12 -9 22 -13 22 -4 0 -15 16 -24 35 -9 19 -21 35 -27 35 -6
0 -7 5 -4 10 3 6 1 10 -4 10 -6 0 -11 6 -11 14 0 8 -4 16 -8 18 -4 2 -27 32
-50 68 -52 82 -65 100 -77 114 -13 16 -33 47 -42 66 -4 8 -12 20 -17 27 -28
32 -34 41 -40 61 -4 12 -12 22 -17 22 -5 0 -9 6 -9 14 0 8 -3 16 -7 18 -12 5
-53 66 -53 78 0 5 -4 10 -8 10 -5 0 -15 12 -23 28 -8 15 -16 29 -19 32 -12 12
-60 87 -60 93 0 5 -11 20 -25 35 -14 15 -25 30 -25 34 0 4 -15 28 -32 54 -18
25 -37 53 -43 63 -5 9 -12 18 -15 21 -11 11 -70 101 -70 106 0 8 -61 86 -80
102 -60 50 -145 67 -202 40z"/>
<path d="M716 1841 c-4 -7 -6 -1551 -1 -1551 2 0 134 130 293 290 l290 290 93
-55 c51 -30 95 -58 98 -62 3 -5 13 -9 21 -11 8 -2 22 -10 31 -18 8 -8 21 -14
27 -14 6 0 16 -8 21 -17 6 -10 11 -14 11 -10 0 5 12 0 28 -10 48 -32 66 -43
92 -55 14 -7 27 -15 30 -19 3 -3 36 -23 73 -45 38 -21 80 -46 93 -54 74 -47
148 -90 155 -90 5 0 9 -4 9 -10 0 -5 6 -10 13 -10 6 0 40 -18 75 -40 34 -22
67 -40 72 -40 4 0 10 -6 13 -12 2 -7 7 -11 10 -8 6 6 -4 24 -168 297 -55 92
-101 173 -103 180 -2 7 -7 13 -12 13 -4 0 -14 15 -21 33 -7 17 -19 38 -25 45
-7 6 -31 45 -54 85 -22 39 -50 86 -60 102 -10 17 -25 41 -33 55 -27 49 -42 75
-47 80 -3 3 -16 22 -28 43 l-22 38 285 286 c157 157 285 289 285 293 0 10
-1538 11 -1544 1z"/>
</g>
</svg>
